General

Format                           : Matroska
File size                        : 1.66 GiB
Duration                         : 2h 53mn
Overall bit rate                 : 1 365 Kbps
Encoded date                     : UTC 2010-12-09 00:22:47
Writing library                  : libebml v1.0.0 + libmatroska v1.0.0

Encoded By RajMahal @ Team ICF

Video

ID                               : 1
Format                           : AVC
Format/Info                      : Advanced Video Codec
Format profile                   : High@L4.1
Format settings, CABAC           : Yes
Format settings, ReFrames        : 3 frames
Muxing mode                      : Header stripping
Codec ID                         : V_MPEG4/ISO/AVC
Duration                         : 2h 53mn
Bit rate mode                    : Variable
Bit rate                         : 1 177 Kbps
Maximum bit rate                 : 5 000 Kbps
Width                            : 928 pixels
Height                           : 400 pixels
Display aspect ratio             : 2.35:1
Frame rate                       : 23.976 fps
Color space                      : YUV
Chroma subsampling               : 4:2:0
Bit depth                        : 8 bits
Scan type                        : Progressive
Bits/(Pixel*Frame)               : 0.132
Stream size                      : 1.43 GiB (86%)

Audio

ID                               : 2
Format                           : AC-3
Format/Info                      : Audio Coding 3
Mode extension                   : CM (complete main)
Muxing mode                      : Header stripping
Codec ID                         : A_AC3
Duration                         : 2h 53mn
Bit rate mode                    : Constant
Bit rate                         : 160 Kbps
Channel(s)                       : 6 channels
Channel positions                : Front: L C R, Side: L R, LFE
Sampling rate                    : 48.0 KHz
Bit depth                        : 16 bits
Compression mode                 : Lossy
Video delay                      : 2ms
Stream size                      : 199 MiB (12%)


